<svg width="17" height="16" viewBox="0 0 17 16" fill="none" xmlns="http://www.w3.org/2000/svg">
<mask id="mask0_107_5834" style="mask-type:alpha" maskUnits="userSpaceOnUse" x="0" y="0" width="17" height="16">
<rect x="0.5" width="16" height="16" fill="#D9D9D9"/>
</mask>
<g mask="url(#mask0_107_5834)">
<path d="M8.49998 14.4001C7.6222 14.4001 6.79442 14.2334 6.01664 13.9001C5.23886 13.5668 4.55831 13.1084 3.97498 12.5251C3.39164 11.9418 2.93331 11.2612 2.59998 10.4834C2.26664 9.70565 2.09998 8.87788 2.09998 8.0001C2.09998 7.11121 2.26664 6.28065 2.59998 5.50843C2.93331 4.73621 3.39164 4.05843 3.97498 3.4751C4.55831 2.89176 5.23886 2.43343 6.01664 2.1001C6.79442 1.76676 7.6222 1.6001 8.49998 1.6001C9.38886 1.6001 10.2194 1.76676 10.9916 2.1001C11.7639 2.43343 12.4416 2.89176 13.025 3.4751C13.6083 4.05843 14.0666 4.73621 14.4 5.50843C14.7333 6.28065 14.9 7.11121 14.9 8.0001C14.9 8.87788 14.7333 9.70565 14.4 10.4834C14.0666 11.2612 13.6083 11.9418 13.025 12.5251C12.4416 13.1084 11.7639 13.5668 10.9916 13.9001C10.2194 14.2334 9.38886 14.4001 8.49998 14.4001ZM8.49998 13.1501C8.68886 12.9612 8.87775 12.6084 9.06664 12.0918C9.25553 11.5751 9.39998 11.0112 9.49998 10.4001H7.49998C7.59998 11.0112 7.74442 11.5751 7.93331 12.0918C8.1222 12.6084 8.31109 12.9612 8.49998 13.1501ZM6.98331 12.9834C6.82775 12.6501 6.69164 12.2668 6.57498 11.8334C6.45831 11.4001 6.36109 10.9223 6.28331 10.4001H3.89998C4.2222 11.0334 4.64998 11.5751 5.18331 12.0251C5.71664 12.4751 6.31664 12.7945 6.98331 12.9834ZM10.0166 12.9834C10.6833 12.7945 11.2833 12.4751 11.8166 12.0251C12.35 11.5751 12.7778 11.0334 13.1 10.4001H10.7166C10.6389 10.9223 10.5416 11.4001 10.425 11.8334C10.3083 12.2668 10.1722 12.6501 10.0166 12.9834ZM3.44998 9.2001H6.13331C6.11109 8.98899 6.0972 8.78065 6.09164 8.5751C6.08609 8.36954 6.08331 8.16676 6.08331 7.96676C6.08331 7.76676 6.08609 7.56954 6.09164 7.3751C6.0972 7.18065 6.11109 6.98899 6.13331 6.8001H3.44998C3.39442 7.01121 3.35553 7.21399 3.33331 7.40843C3.31109 7.60288 3.29998 7.8001 3.29998 8.0001C3.29998 8.2001 3.31109 8.39732 3.33331 8.59176C3.35553 8.78621 3.39442 8.98899 3.44998 9.2001ZM7.34998 9.2001H9.64998C9.6722 8.97788 9.68609 8.76954 9.69164 8.5751C9.6972 8.38065 9.69998 8.18899 9.69998 8.0001C9.69998 7.81121 9.6972 7.61676 9.69164 7.41676C9.68609 7.21676 9.6722 7.01121 9.64998 6.8001H7.34998C7.32775 7.01121 7.31386 7.21676 7.30831 7.41676C7.30275 7.61676 7.29998 7.81121 7.29998 8.0001C7.29998 8.18899 7.30275 8.38343 7.30831 8.58343C7.31386 8.78343 7.32775 8.98899 7.34998 9.2001ZM10.8666 9.2001H13.55C13.6055 8.98899 13.6444 8.78621 13.6666 8.59176C13.6889 8.39732 13.7 8.2001 13.7 8.0001C13.7 7.8001 13.6889 7.6001 13.6666 7.4001C13.6444 7.2001 13.6055 7.0001 13.55 6.8001H10.8666C10.8889 7.01121 10.9028 7.21954 10.9083 7.4251C10.9139 7.63065 10.9166 7.83343 10.9166 8.03343C10.9166 8.23343 10.9139 8.43065 10.9083 8.6251C10.9028 8.81954 10.8889 9.01121 10.8666 9.2001ZM10.7166 5.6001H13.1C12.7778 4.96676 12.35 4.4251 11.8166 3.9751C11.2833 3.5251 10.6833 3.20565 10.0166 3.01676C10.1722 3.3501 10.3083 3.73343 10.425 4.16676C10.5416 4.6001 10.6389 5.07788 10.7166 5.6001ZM7.49998 5.6001H9.49998C9.39998 4.98899 9.25553 4.4251 9.06664 3.90843C8.87775 3.39176 8.68886 3.03899 8.49998 2.8501C8.31109 3.03899 8.1222 3.39176 7.93331 3.90843C7.74442 4.4251 7.59998 4.98899 7.49998 5.6001ZM3.89998 5.6001H6.28331C6.36109 5.07788 6.45831 4.6001 6.57498 4.16676C6.69164 3.73343 6.82775 3.3501 6.98331 3.01676C6.31664 3.20565 5.71664 3.5251 5.18331 3.9751C4.64998 4.4251 4.2222 4.96676 3.89998 5.6001Z" fill="#5C5C5C"/>
</g>
</svg>
