<svg width="17" height="14" viewBox="0 0 17 14" fill="none" xmlns="http://www.w3.org/2000/svg">
<path d="M13.6129 2.3458C13.6088 2.33789 13.6021 2.33168 13.5938 2.3283C12.6407 1.89103 11.635 1.57921 10.6017 1.40067C10.5923 1.39892 10.5826 1.40018 10.574 1.40427C10.5653 1.40835 10.5582 1.41505 10.5536 1.42342C10.4166 1.67199 10.2923 1.92731 10.1811 2.18841C9.06727 2.01933 7.93429 2.01933 6.82046 2.18841C6.7085 1.92664 6.58218 1.67126 6.44208 1.42342C6.43727 1.41523 6.43012 1.40869 6.42154 1.40463C6.41296 1.40057 6.40335 1.39919 6.39398 1.40067C5.36057 1.57884 4.35474 1.89067 3.40178 2.32833C3.39362 2.33179 3.38674 2.33769 3.38208 2.34523C1.47635 5.19113 0.954305 7.96707 1.2104 10.7086C1.21113 10.7153 1.21319 10.7218 1.21648 10.7278C1.21976 10.7337 1.2242 10.7388 1.22953 10.743C2.33922 11.5646 3.58041 12.1918 4.90015 12.5977C4.90945 12.6005 4.91937 12.6004 4.92859 12.5973C4.93781 12.5943 4.94589 12.5885 4.95173 12.5808C5.23518 12.1951 5.48634 11.7867 5.70265 11.3598C5.70563 11.3539 5.70732 11.3475 5.70763 11.3409C5.70794 11.3344 5.70686 11.3278 5.70445 11.3217C5.70205 11.3156 5.69837 11.31 5.69367 11.3055C5.68897 11.3009 5.68335 11.2973 5.67718 11.2951C5.28112 11.1435 4.89769 10.9608 4.53048 10.7487C4.52381 10.7448 4.51821 10.7393 4.51417 10.7327C4.51013 10.7261 4.50778 10.7186 4.50732 10.7109C4.50686 10.7032 4.50831 10.6955 4.51155 10.6884C4.51478 10.6814 4.51969 10.6753 4.52585 10.6706C4.60312 10.6129 4.67905 10.5534 4.75358 10.4922C4.76012 10.4868 4.76803 10.4833 4.77642 10.4822C4.78481 10.4811 4.79335 10.4823 4.80108 10.4858C7.2068 11.5837 9.81133 11.5837 12.1886 10.4858C12.1963 10.4821 12.205 10.4807 12.2135 10.4817C12.222 10.4828 12.23 10.4862 12.2367 10.4916C12.3113 10.5531 12.3874 10.6128 12.465 10.6706C12.4712 10.6752 12.4761 10.6813 12.4794 10.6883C12.4827 10.6953 12.4842 10.703 12.4838 10.7108C12.4834 10.7185 12.4811 10.726 12.4771 10.7326C12.4731 10.7392 12.4676 10.7448 12.4609 10.7487C12.0946 10.9626 11.7108 11.1452 11.3137 11.2945C11.3075 11.2968 11.3019 11.3005 11.2972 11.3051C11.2926 11.3098 11.2889 11.3154 11.2866 11.3215C11.2842 11.3277 11.2832 11.3343 11.2835 11.3409C11.2839 11.3475 11.2857 11.3539 11.2887 11.3598C11.5086 11.7844 11.7594 12.1922 12.039 12.5801C12.0447 12.5881 12.0527 12.594 12.062 12.5972C12.0712 12.6003 12.0813 12.6005 12.0906 12.5976C13.4127 12.1931 14.6561 11.5659 15.7672 10.743C15.7726 10.7391 15.7771 10.734 15.7804 10.7282C15.7837 10.7223 15.7857 10.7159 15.7863 10.7092C16.0929 7.53967 15.273 4.78649 13.6129 2.3458ZM6.06193 9.0393C5.33763 9.0393 4.74083 8.37464 4.74083 7.55835C4.74083 6.74206 5.32605 6.07735 6.06193 6.07735C6.80356 6.07735 7.39458 6.74784 7.38301 7.5583C7.38301 8.37464 6.79775 9.0393 6.06193 9.0393ZM10.9464 9.0393C10.2222 9.0393 9.62535 8.37464 9.62535 7.55835C9.62535 6.74206 10.2106 6.07735 10.9464 6.07735C11.6881 6.07735 12.2791 6.74784 12.2675 7.5583C12.2675 8.37464 11.6881 9.0393 10.9464 9.0393Z" fill="#5C5C5C"/>
</svg>
