<svg width="32" height="32" viewBox="0 0 32 32" fill="none" xmlns="http://www.w3.org/2000/svg">
<circle cx="16" cy="16" r="15.35" stroke="#18181B" stroke-width="1.3"/>
<path fill-rule="evenodd" clip-rule="evenodd" d="M16.0016 8.59961C11.9007 8.59961 8.60156 11.9809 8.60156 16.1837C8.60156 19.5334 10.7291 22.3774 13.6582 23.3886C14.0282 23.4519 14.1516 23.2306 14.1516 23.0094C14.1516 22.8198 14.1516 22.3458 14.1516 21.7138C12.0857 22.1878 11.6541 20.7026 11.6541 20.7026C11.3149 19.8178 10.8216 19.5966 10.8216 19.5966C10.1432 19.1226 10.8832 19.1226 10.8832 19.1226C11.6232 19.1858 12.0241 19.9126 12.0241 19.9126C12.6716 21.0818 13.7507 20.7342 14.1824 20.5446C14.2441 20.039 14.4291 19.723 14.6449 19.5334C13.0107 19.3438 11.2841 18.6802 11.2841 15.7729C11.2841 14.9513 11.5616 14.2561 12.0549 13.7505C11.9932 13.5609 11.7157 12.8025 12.1166 11.7281C12.1166 11.7281 12.7332 11.5385 14.1516 12.5181C14.7374 12.3601 15.3849 12.2653 16.0016 12.2653C16.6182 12.2653 17.2657 12.3601 17.8516 12.5181C19.2699 11.5385 19.8866 11.7281 19.8866 11.7281C20.2874 12.7709 20.0407 13.5293 19.9482 13.7505C20.4107 14.2877 20.7191 14.9513 20.7191 15.7729C20.7191 18.6802 18.9924 19.3122 17.3274 19.5018C17.6049 19.723 17.8207 20.197 17.8207 20.8922C17.8207 21.9034 17.8207 22.725 17.8207 22.9778C17.8207 23.1674 17.9441 23.4202 18.3449 23.357C21.2741 22.3774 23.4016 19.5334 23.4016 16.1837C23.4016 11.9809 20.1024 8.59961 16.0016 8.59961Z" fill="#18181B"/>
</svg>
