<svg width="32" height="32" viewBox="0 0 32 32" fill="none" xmlns="http://www.w3.org/2000/svg">
<circle cx="16.0001" cy="16.0002" r="15.35" stroke="#18181B" stroke-width="1.3"/>
<path d="M17.3045 15.694C17.309 17.1983 16.7162 18.6428 15.6565 19.7104C14.5967 20.778 13.1565 21.3814 11.6523 21.388C10.148 21.3814 8.70787 20.778 7.6481 19.7104C6.58833 18.6428 5.99559 17.1983 6.00002 15.694C5.99559 14.1897 6.58833 12.7452 7.6481 11.6776C8.70787 10.61 10.148 10.0066 11.6523 10C13.1565 10.0066 14.5967 10.61 15.6565 11.6776C16.7162 12.7452 17.309 14.1897 17.3045 15.694ZM23.4995 15.694C23.4995 18.6495 22.2388 21.054 20.6775 21.054C19.1163 21.054 17.8472 18.6495 17.8472 15.694C17.8472 12.7385 19.1163 10.334 20.6775 10.334C22.2388 10.334 23.4995 12.7385 23.4995 15.694ZM26.0376 15.694C26.0376 18.3406 25.5951 20.4947 25.044 20.4947C24.493 20.4947 24.0505 18.3406 24.0505 15.694C24.0505 13.0474 24.493 10.8933 25.044 10.8933C25.5951 10.8933 26.0376 13.0474 26.0376 15.694Z" fill="#18181B"/>
</svg>
