<svg width="24" height="24" viewBox="0 0 24 24" fill="none" xmlns="http://www.w3.org/2000/svg">
<circle cx="12" cy="12" r="11.625" fill="#18181B" stroke="#18181B" stroke-width="0.75"/>
<path fill-rule="evenodd" clip-rule="evenodd" d="M11.5097 6.13441C11.418 5.98939 11.307 5.82145 11.1943 5.67352C11.0689 5.50898 10.9185 5.3358 10.7533 5.20845C10.5986 5.08918 10.3567 4.95338 10.0763 5.01564C9.86917 5.06165 9.74534 5.22088 9.67959 5.32607C9.60563 5.4444 9.54724 5.58862 9.49934 5.73516C9.40261 6.03107 9.32574 6.40916 9.2641 6.78997C9.1581 7.44476 9.08957 8.15778 9.04953 8.57447L9.04952 8.57448L9.04952 8.57451V8.57451L9.04952 8.57453L9.04471 8.62457C8.90688 8.76708 8.75025 8.96604 8.63334 9.1888C8.56275 9.3233 8.49461 9.49023 8.46565 9.67149C7.48715 9.62177 6.28192 10.0561 5.60524 11.3304C5.04626 12.383 5.23151 13.6383 5.90286 14.5282C6.4441 15.2456 7.30325 15.7307 8.3475 15.7105C8.20729 16.106 8.1981 16.5745 8.42361 17.0365C7.93932 17.5925 7.9984 18.4438 8.62934 18.9247C8.69304 18.9733 8.77093 18.9996 8.85104 18.9996L16.7048 19C16.8973 19 17.0882 18.9013 17.1923 18.7201C17.9753 17.3559 17.3371 15.9706 16.5872 15.307C17.1591 14.4386 17.0494 13.4113 16.5647 12.6715C17.2432 11.7523 17.0837 10.7262 16.7888 10.1426C17.0522 9.36747 17.2257 8.38016 17.2805 7.5948C17.3085 7.19455 17.3075 6.822 17.2625 6.54744C17.2411 6.41733 17.2034 6.26489 17.1226 6.14257C17.0796 6.07759 17.0105 5.99991 16.9044 5.95229C16.7902 5.90105 16.671 5.90168 16.5671 5.93462C16.4485 5.97219 16.3407 6.05333 16.2652 6.11551C16.1788 6.18675 16.0848 6.27612 15.9892 6.37324C15.7974 6.56799 15.5774 6.81578 15.3629 7.06307C15.2615 7.18001 15.1634 7.29438 15.0688 7.40461L15.0687 7.40478C14.9576 7.53419 14.8515 7.65791 14.7506 7.77341C14.719 7.80967 14.6888 7.84395 14.6602 7.87617C14.6492 7.9927 14.5467 8.07934 14.4295 8.07033C14.311 8.06122 14.2224 7.95782 14.2315 7.83937C14.2522 7.57087 14.2454 7.19176 14.1673 6.8767C14.0843 6.54201 13.951 6.38419 13.7965 6.36007C13.551 6.32176 13.4748 6.38684 13.4423 6.42581C13.3913 6.48698 13.3717 6.57231 13.3431 6.69616L13.3431 6.69617L13.3372 6.72149C13.3188 6.80109 13.2568 6.86337 13.1773 6.88222C13.0978 6.90108 13.0144 6.87326 12.9622 6.81042C12.8687 6.69801 12.696 6.53877 12.4939 6.43689C12.2924 6.33525 12.0922 6.30442 11.9111 6.38669C11.8083 6.43336 11.7638 6.48092 11.7439 6.51365C11.725 6.54486 11.7181 6.57979 11.7233 6.62383C11.7353 6.72464 11.8093 6.84438 11.8878 6.92536C11.9487 6.9882 11.9655 7.08168 11.9302 7.16178C11.8949 7.24188 11.8146 7.29262 11.7271 7.29011C11.6492 7.28787 11.5176 7.30796 11.4013 7.37526C11.2927 7.43818 11.1958 7.54212 11.1619 7.725C11.1565 7.75425 11.161 7.76525 11.1617 7.76676L11.1617 7.76679C11.1624 7.76849 11.1656 7.77611 11.1825 7.78812C11.2232 7.81718 11.3075 7.84637 11.4436 7.8603C11.7086 7.88742 12.0548 7.84635 12.2961 7.79697C12.3821 7.77938 12.4701 7.81575 12.5186 7.88889C12.567 7.96202 12.5662 8.05726 12.5165 8.12956C12.4756 8.18898 12.431 8.28528 12.4229 8.37284C12.4159 8.44771 12.4337 8.49818 12.4985 8.5395C12.5827 8.59309 12.7317 8.61238 12.9235 8.59038C13.1062 8.56941 13.2849 8.51598 13.3895 8.47454C13.4999 8.43077 13.625 8.48482 13.6687 8.59526C13.7125 8.70571 13.6584 8.83072 13.548 8.87449C13.4144 8.92739 13.1988 8.99181 12.9725 9.01778C12.7551 9.04272 12.4804 9.03805 12.2673 8.90235C12.035 8.75438 11.9763 8.52768 11.9944 8.33298C11.9962 8.31431 11.9986 8.2958 12.0016 8.27753C11.8047 8.29892 11.5907 8.30782 11.3997 8.28827C11.2397 8.2719 11.065 8.23287 10.9325 8.1383C10.8627 8.08849 10.8007 8.02044 10.7637 7.93043C10.7266 7.84013 10.7209 7.74333 10.7388 7.64677C10.7982 7.3257 10.9818 7.12106 11.1857 7.00298C11.2457 6.96823 11.3073 6.941 11.368 6.92004C11.333 6.84445 11.3063 6.76162 11.296 6.67465C11.2814 6.55187 11.2993 6.41728 11.3759 6.29083C11.4109 6.23301 11.4558 6.18091 11.5097 6.13441ZM16.237 12.5371L16.2253 12.5135L16.2184 12.5223L16.237 12.5371ZM9.08506 13.1696C8.95986 13.3282 8.98685 13.5581 9.14535 13.6833C9.28739 13.7954 9.46677 13.8472 9.6262 13.8678C9.79252 13.8892 9.97447 13.8817 10.1511 13.8448C10.4914 13.7737 10.8988 13.5703 11.0701 13.1423C11.1452 12.9548 11.054 12.7419 10.8665 12.667C10.6789 12.592 10.4661 12.6833 10.391 12.8708C10.3469 12.9811 10.2163 13.084 10.0017 13.1289C9.90099 13.1499 9.80135 13.1529 9.72014 13.1424C9.63744 13.1317 9.60231 13.1112 9.599 13.1093C9.59878 13.1091 9.5987 13.1091 9.59875 13.1091C9.44025 12.984 9.21026 13.0111 9.08506 13.1696ZM6.5852 12.3455C7.05821 12.6504 7.7179 12.4692 8.05866 11.9407C8.39942 11.4122 8.2922 10.7365 7.81919 10.4316C7.34618 10.1266 6.68649 10.3078 6.34574 10.8363C6.00498 11.3648 6.11219 12.0405 6.5852 12.3455ZM10.9799 10.4874C10.9799 10.8119 10.769 11.0749 10.5088 11.0749C10.2486 11.0749 10.0376 10.8119 10.0376 10.4874C10.0376 10.1628 10.2486 9.89978 10.5088 9.89978C10.769 9.89978 10.9799 10.1628 10.9799 10.4874ZM12.8526 11.5198C13.1348 11.5198 13.3635 11.2367 13.3635 10.8875C13.3635 10.5383 13.1348 10.2552 12.8526 10.2552C12.5705 10.2552 12.3418 10.5383 12.3418 10.8875C12.3418 11.2367 12.5705 11.5198 12.8526 11.5198Z" fill="white"/>
</svg>
