<svg width="32" height="32" viewBox="0 0 32 32" fill="none" xmlns="http://www.w3.org/2000/svg">
<circle cx="16" cy="16" r="15.35" stroke="#5C5C5C" stroke-width="1.3"/>
<path d="M18.9737 13.1979C19.1693 13.1979 19.3622 13.2122 19.5532 13.233C19.0327 10.8343 16.4407 9.05176 13.4824 9.05176C10.1747 9.05176 7.46509 11.2829 7.46509 14.1157C7.46509 15.7506 8.36676 17.0934 9.87294 18.1349L9.2712 19.9265L11.3745 18.8825C12.1276 19.0297 12.7311 19.1815 13.4824 19.1815C13.6711 19.1815 13.858 19.1723 14.044 19.1575C13.9263 18.7598 13.858 18.3426 13.858 17.9102C13.858 15.309 16.1154 13.1979 18.9737 13.1979ZM15.7389 11.5833C16.192 11.5833 16.4919 11.8786 16.4919 12.3267C16.4919 12.7729 16.192 13.0719 15.7389 13.0719C15.2876 13.0719 14.8354 12.7729 14.8354 12.3267C14.8354 11.8786 15.2876 11.5833 15.7389 11.5833ZM11.5277 13.0719C11.0764 13.0719 10.6214 12.7729 10.6214 12.3267C10.6214 11.8786 11.0764 11.5833 11.5277 11.5833C11.9785 11.5833 12.2789 11.8786 12.2789 12.3267C12.2789 12.7729 11.9785 13.0719 11.5277 13.0719ZM24.4658 17.8387C24.4658 15.4581 22.0584 13.5177 19.3548 13.5177C16.4919 13.5177 14.2373 15.4581 14.2373 17.8387C14.2373 20.2228 16.4919 22.159 19.3548 22.159C19.9538 22.159 20.5583 22.0104 21.16 21.8609L22.8106 22.7552L22.3579 21.2675C23.566 20.3704 24.4658 19.1815 24.4658 17.8387ZM17.6954 17.0934C17.396 17.0934 17.0937 16.7986 17.0937 16.4977C17.0937 16.201 17.396 15.9025 17.6954 15.9025C18.1504 15.9025 18.4485 16.201 18.4485 16.4977C18.4485 16.7986 18.1504 17.0934 17.6954 17.0934ZM21.0049 17.0934C20.7078 17.0934 20.4074 16.7986 20.4074 16.4977C20.4074 16.201 20.7078 15.9025 21.0049 15.9025C21.4562 15.9025 21.758 16.201 21.758 16.4977C21.758 16.7986 21.4562 17.0934 21.0049 17.0934Z" fill="#5C5C5C"/>
</svg>
