<svg width="40" height="32" viewBox="0 0 40 32" fill="none" xmlns="http://www.w3.org/2000/svg">
<g id="Group 215">
<path id="Vector" d="M37.8333 31.5556H2.167C1.21445 31.5556 0.44458 30.8726 0.44458 30.0275V5.07503C0.44458 4.22992 1.21445 3.54688 2.167 3.54688H37.8333C38.7858 3.54688 39.5557 4.22992 39.5557 5.07503V30.0275C39.5557 30.8687 38.7815 31.5556 37.8333 31.5556Z" fill="#85C6FF"/>
<path id="Vector_2" d="M20.0219 10.9312H0.444458V2.16462C0.444458 1.21324 1.21521 0.444336 2.16881 0.444336H15.5673C16.3294 0.444336 16.9999 0.939579 17.2176 1.66938L20.0219 10.9312Z" fill="#4093E6"/>
<path id="Vector_3" d="M37.8333 31.5554H2.167C1.21445 31.5554 0.44458 30.7873 0.44458 29.8368V7.62488C0.44458 6.67441 1.21445 5.90625 2.167 5.90625H37.8333C38.7858 5.90625 39.5557 6.67441 39.5557 7.62488V29.8368C39.5557 30.7829 38.7815 31.5554 37.8333 31.5554Z" fill="#51AEFF"/>
</g>
</svg>
